<?xml version="1.0" encoding="UTF-8"?>
<svg id="Layer_1" data-name="Layer 1" xmlns="http://www.w3.org/2000/svg" viewBox="0 0 1023.46 480.03">
  <defs>
    <style>
      .cls-1 {
        font-family: Garamond, Garamond;
        font-size: 270.67px;
      }

      .cls-1, .cls-2 {
        fill: #000;
      }

      .cls-2 {
        stroke-width: 0px;
      }
    </style>
  </defs>
  <g>
    <path class="cls-2" d="M249.64,143.04S106.48,70.21,8.63,173.26c0,0,110.14-60.86,241.01-30.21Z"/>
    <path class="cls-2" d="M239.54,127.04c-141.91-82.73-221.14,6.41-221.14,6.41,125.37-55.59,221.14-6.41,221.14-6.41Z"/>
    <path class="cls-2" d="M485.26,30.61c-138.37-32.34-217.98,107.16-217.98,107.16C359.79,40.27,485.26,30.61,485.26,30.61Z"/>
    <path class="cls-2" d="M455.23,2.72s-115.18-30.96-188.31,116.13c0,0,53.01-93.71,188.31-116.13Z"/>
    <path class="cls-2" d="M262.02,152.29S114.54,111.78,2.51,202.17c0,0,107.83-48.56,238.41-29.54l1.22,4.07c4.12,13.78,18.64,21.6,32.41,17.48,13.78-4.12,21.6-18.64,17.48-32.41l-1.22-4.07c98.66-87.62,215.44-106.29,215.44-106.29-143.26-13.99-244.23,100.89-244.23,100.89Z"/>
  </g>
  <text class="cls-1" transform="translate(0 397.03)"><tspan x="0" y="0">BookBird</tspan></text>
</svg>